<svg id="Слой_1" data-name="Слой 1" xmlns="http://www.w3.org/2000/svg" viewBox="0 0 1311 254"><defs><style>.cls-1{fill:#5d5d5f;}.cls-2{fill:#1874a5;}.cls-3{fill:#fff;}</style></defs><title>Мегахолод-Logo-Hor-Rus-Color-RGB</title><path class="cls-1" d="M397.1,61.2h10.5V174.9H378V122.6l-24.1,25.3h-3.4l-24.1-25.3v52.3H296.7V61.2h10.5l45,49.1Z"/><path class="cls-1" d="M502.7,87.3H461.6v16.2h37.9v25.9H461.6v18.5h42.6v27H431.9V61.5h70.8Z"/><path class="cls-1" d="M554.1,87.4v87.5H524.6V61.5h70.6V87.4Z"/><path class="cls-1" d="M622.4,160.8l-6.5,14.1H585v-4L637,60.4h13.6l51.5,110.5v4H671.5l-6.6-14.1ZM632,136h23.5l-11.8-27.4Z"/><path class="cls-1" d="M756.7,92.5,775,61.5h31.9v4.4l-32.7,48.9,36.6,55.9v4.2h-33l-20.9-35.5h-1l-20.7,35.5H701.8v-4.2l36.8-55.9L705.7,65.9V61.5h32.1L756,92.5Z"/><path class="cls-1" d="M873,177c-30,0-58-19.4-58-58.8s29-59,58.5-59,57.8,19.8,57.8,59C931.3,152.9,907.3,177,873,177Zm.2-28c14.1,0,28.5-10.5,28.5-30.8s-14.1-30.8-28.2-30.8-28.8,10-28.8,30.8S858.6,149,873.2,149Z"/><path class="cls-1" d="M984.1,139.9c-2.9,32.9-13.8,38.9-46.3,34.3l.5-21.2c13,1.1,15.1-1.9,16.4-14.1l7.9-77.4h80V174.9h-29.5v-87H988.5Z"/><path class="cls-1" d="M1118.9,177c-30,0-58-19.4-58-58.8s29-59,58.5-59,57.8,19.8,57.8,59C1177.2,152.9,1153.2,177,1118.9,177Zm.2-28c14.1,0,28.5-10.5,28.5-30.8s-14.1-30.8-28.2-30.8-28.8,10-28.8,30.8S1104.4,149,1119,149Z"/><path class="cls-1" d="M1189.5,149.8c8.7-.2,10.5-3.9,11.8-14.4l8.6-73.9h78.2v88.3h11.3v38.4h-24V174.9h-67.7v13.3h-22.5V149.8Zm41-13.4c-.3,4.5-1.6,11.2-5.2,14.1h33.4V86.9h-23Z"/><path class="cls-1" d="M310.6,226.1c-8.2,0-15.2-5.7-15.2-15.5s7.2-15.5,15.3-15.5,15.3,5.7,15.3,15.5S319.7,226.1,310.6,226.1Zm.1-4.7c5.6,0,10.3-3.8,10.3-10.8s-4.6-10.9-10.3-10.9-10.3,3.9-10.3,10.9S305,221.4,310.7,221.4Z"/><path class="cls-1" d="M346.3,211.8a5.6,5.6,0,0,0-5.5-3.3,6.7,6.7,0,0,0-.1,13.4,5.8,5.8,0,0,0,5.6-3.8h4.5c-1.1,5.2-5.6,7.8-10.1,7.8s-10.9-3.6-10.9-10.8,5.5-10.8,10.9-10.9,8.9,2.4,10,7.5Z"/><path class="cls-1" d="M374.3,204.9v20.7h-4.5V217h-10v8.7h-4.5V204.9h4.5v7.9h10v-7.9Z"/><path class="cls-1" d="M390,226c-5.4,0-10.9-3.6-10.9-10.8s5.3-10.7,10.7-10.8,11.1,3.5,11.1,10.8S395.5,226,390,226Zm.1-4.1c3.1,0,6.2-2.3,6.2-6.7s-3.3-6.7-6.4-6.7-6.1,2.3-6.1,6.7S386.9,221.9,390.1,221.9Z"/><path class="cls-1" d="M419.8,214.5a5.2,5.2,0,0,1,3.9,5.2c0,5.4-4.8,5.9-8.9,5.9h-9.1V204.9h7.9c3.8,0,9,.3,9,5.4A4.1,4.1,0,0,1,419.8,214.5Zm-5.9-1.2c1.8,0,4.1-.2,4.1-2.4s-2.3-2.5-4.1-2.5h-3.6v4.9Zm.4,8.8c2,0,4.8,0,4.8-2.8s-2.9-2.8-5.1-2.8h-3.9v5.6Z"/><path class="cls-1" d="M434.4,226c-3.8,0-7.4-2.4-7.4-6.4s3.5-7.3,8-7.3a13,13,0,0,1,6.1,1.5v-2.1c0-5.4-9.3-3.6-11.9-2.4l-.7-3.3a17.4,17.4,0,0,1,7.6-1.6c5,0,9.5,1.8,9.5,7.5V220c0,1.9-.1,3.2,2.1,3v2.7c-3.3.6-5.8.6-5.9-3.5C440.6,224.9,437.3,226,434.4,226Zm6.7-9.2a10.6,10.6,0,0,0-5.4-1.4c-2.3,0-4.2,1.4-4.2,3.9s1.9,3,3.8,3,5.3-1.2,5.8-3.8Z"/><path class="cls-1" d="M471.2,204.9v20.7h-4.5V217h-10v8.7h-4.5V204.9h4.5v7.9h10v-7.9Z"/><path class="cls-1" d="M486.9,226c-5.4,0-10.9-3.6-10.9-10.8s5.3-10.7,10.7-10.8,11.1,3.5,11.1,10.8S492.4,226,486.9,226Zm.1-4.1c3.1,0,6.2-2.3,6.2-6.7s-3.3-6.7-6.4-6.7-6.1,2.3-6.1,6.7S483.8,221.9,487,221.9Z"/><path class="cls-1" d="M527.5,214.5a5.2,5.2,0,0,1,3.9,5.2c0,5.4-4.8,5.9-8.9,5.9h-9.1V204.9h7.9c3.8,0,9,.3,9,5.4A4.1,4.1,0,0,1,527.5,214.5Zm-5.9-1.2c1.8,0,4.1-.2,4.1-2.4s-2.3-2.5-4.1-2.5H518v4.9Zm.4,8.8c2,0,4.8,0,4.8-2.8s-2.9-2.8-5.1-2.8H518v5.6Z"/><path class="cls-1" d="M550.4,204h-4c.1-5.7,3.2-8.7,9.1-8.8,8.8,0,11.3,8.6,5.7,16-1.6,1.8-3.5,4.5-8,10.3h11.6v4.1H545.8v-1.1l11.8-15.4c3.2-3.9,3.4-10.1-2.4-10.1C552.4,199.1,550.6,200.9,550.4,204Z"/><path class="cls-1" d="M592.3,205.5v10.4c0,6.5-5,10.3-11.1,10.3s-11.2-3.9-11.2-10.3V205.5c0-6.4,5-10.3,11.2-10.3S592.3,199,592.3,205.5Zm-5,11.9a14.3,14.3,0,0,0,.3-2.8v-7.8a14.3,14.3,0,0,0-.3-2.8c-.6-2.9-3-4.5-6.1-4.5s-5.5,1.5-6.2,4.5a14.3,14.3,0,0,0-.3,2.8v7.8a14.3,14.3,0,0,0,.3,2.8c.6,2.9,3.1,4.4,6.2,4.4S586.6,220.3,587.3,217.4Z"/><path class="cls-1" d="M620.4,205.5v10.4c0,6.5-5,10.3-11.1,10.3s-11.2-3.9-11.2-10.3V205.5c0-6.4,5-10.3,11.2-10.3S620.4,199,620.4,205.5Zm-5,11.9a14.3,14.3,0,0,0,.3-2.8v-7.8a14.3,14.3,0,0,0-.3-2.8c-.6-2.9-3-4.5-6.1-4.5s-5.5,1.5-6.2,4.5a14.3,14.3,0,0,0-.3,2.8v7.8a14.3,14.3,0,0,0,.3,2.8c.6,2.9,3.1,4.4,6.2,4.4S614.8,220.3,615.4,217.4Z"/><path class="cls-1" d="M648.6,205.5v10.4c0,6.5-5,10.3-11.1,10.3s-11.2-3.9-11.2-10.3V205.5c0-6.4,5-10.3,11.2-10.3S648.6,199,648.6,205.5Zm-5,11.9a14.3,14.3,0,0,0,.3-2.8v-7.8a14.3,14.3,0,0,0-.3-2.8c-.6-2.9-3-4.5-6.1-4.5s-5.5,1.5-6.2,4.5a14.3,14.3,0,0,0-.3,2.8v7.8a14.3,14.3,0,0,0,.3,2.8c.6,2.9,3.1,4.4,6.2,4.4S642.9,220.3,643.6,217.4Z"/><path class="cls-1" d="M665.3,225.6V204.9h14.5v4.1h-10v16.6Z"/><path class="cls-1" d="M693.1,226c-5.4,0-10.9-3.6-10.9-10.8s5.3-10.7,10.7-10.8,11.1,3.5,11.1,10.8S698.6,226,693.1,226Zm.1-4.1c3.1,0,6.2-2.3,6.2-6.7s-3.3-6.7-6.4-6.7-6.1,2.3-6.1,6.7S690,221.9,693.2,221.9Z"/><path class="cls-1" d="M706.6,230.4V222h.5c3,0,3.3-3,3.8-6.6l1.5-10.4h14.6v17h2.8v8.4h-4v-4.8H710.8v4.8Zm15.8-21.5h-6.3l-1,7.9c-.5,3.1-.8,4.4-1.9,5.3h9.2Z"/><path class="cls-1" d="M744.3,227.4c-2.5,6.1-5.3,11.1-12.1,7.9l.5-3.4c3.7,1.6,5.4-.2,6.7-3.6l1-2.5-9.2-20.3v-.5h5l6.4,15.4h.1l5.9-15.4h4.7v.5Z"/><rect class="cls-2" x="10.5" y="10.6" width="233" height="232.96" rx="33" ry="33"/><polygon class="cls-3" points="162.7 47.2 127.6 93.3 92.4 47.2 40.7 47.2 40.7 205.3 119.8 205.3 119.8 193.4 54.4 192.8 54.4 59 83.1 59 119.5 103.8 98.6 131.2 98.6 149.3 127.6 113.7 156.5 149.3 156.5 131.2 135.6 103.8 172.1 59 200.7 59 200.7 192.8 135.3 193.4 135.3 205.3 214.4 205.3 214.4 47.2 162.7 47.2"/><path class="cls-3" d="M213.5,236.9H40.8a23.1,23.1,0,0,1-23.1-23.1V41.2A23.1,23.1,0,0,1,40.8,18.1H213.5a23.1,23.1,0,0,1,23.1,23.1V213.9A23.1,23.1,0,0,1,213.5,236.9ZM40.8,27.1A14.1,14.1,0,0,0,26.8,41.2V213.9a14.1,14.1,0,0,0,14.1,14.1H213.5a14.1,14.1,0,0,0,14.1-14.1V41.2a14.1,14.1,0,0,0-14.1-14.1Z"/></svg>